name rise30.9205peak61.366fall85.3838.mot
datacolumns 19
datarows 20
range 8.98163600000000 9.01329900000000
endheader
time	ground_force1_vx	ground_force1_vy	ground_force1_vz	ground_force1_px	ground_force1_py	ground_force1_pz	ground_force2_vx	ground_force2_vy	ground_force2_vz	ground_force2_px	ground_force2_py	ground_force2_pz	ground_torque1_x	ground_torque1_y	ground_torque1_z	ground_torque2_x	ground_torque2_y	ground_torque2_z	
8.98163600000000	-13.41547300000000	42.62079800000000	-6.15398700000000	0.32043000000000	0.00000000000000	0.11105900000000	-41.48188000000000	787.67989000000000	-55.81308700000000	0.13853300000000	0.00000000000000	-0.07602400000000	0.00000000000000	-2.57536900000000	0.00000000000000	0.00000000000000	-20.04537900000000	0.00000000000000	
8.98329800000000	-14.79508100000000	49.99872600000000	-6.96107900000000	0.32727600000000	0.00000000000000	0.11122300000000	-41.98617400000000	784.80805099999998	-55.52450100000000	0.13783200000000	0.00000000000000	-0.07591900000000	0.00000000000000	-3.02635600000000	0.00000000000000	0.00000000000000	-19.94891900000000	0.00000000000000	
8.98496700000000	-15.94646400000000	57.47945500000000	-7.70712400000000	0.33350900000000	0.00000000000000	0.11137700000000	-42.50955300000000	781.80950299999995	-55.21979400000000	0.13713700000000	0.00000000000000	-0.07581200000000	0.00000000000000	-3.47494800000000	0.00000000000000	0.00000000000000	-19.85425500000000	0.00000000000000	
8.98663500000000	-16.83470700000000	64.96681200000000	-8.37500700000000	0.33922000000000	0.00000000000000	0.11152300000000	-43.05199600000000	778.68329700000004	-54.89879500000000	0.13644700000000	0.00000000000000	-0.07570000000000	0.00000000000000	-3.91196200000000	0.00000000000000	0.00000000000000	-19.76141600000000	0.00000000000000	
8.98830400000000	-17.43925400000000	72.38755100000000	-8.95268300000000	0.34448500000000	0.00000000000000	0.11166100000000	-43.61337600000000	775.42847800000004	-54.56133400000000	0.13576300000000	0.00000000000000	-0.07558600000000	0.00000000000000	-4.32981900000000	0.00000000000000	0.00000000000000	-19.67041000000000	0.00000000000000	
8.98997100000000	-17.75371000000000	79.69365700000000	-9.43332800000000	0.34936200000000	0.00000000000000	0.11179500000000	-44.19346100000000	772.04409199999998	-54.20724500000000	0.13508300000000	0.00000000000000	-0.07546900000000	0.00000000000000	-4.72280400000000	0.00000000000000	0.00000000000000	-19.58122600000000	0.00000000000000	
8.99163700000000	-17.78453200000000	86.86218000000000	-9.81502800000000	0.35389900000000	0.00000000000000	0.11192500000000	-44.79191200000000	768.52917800000000	-53.83636800000000	0.13440900000000	0.00000000000000	-0.07534800000000	0.00000000000000	-5.08713000000000	0.00000000000000	0.00000000000000	-19.49383600000000	0.00000000000000	
8.99331300000000	-17.54887500000000	93.89304300000001	-10.10013000000000	0.35813700000000	0.00000000000000	0.11205200000000	-45.40827800000000	764.88277900000003	-53.44854800000000	0.13374000000000	0.00000000000000	-0.07522400000000	0.00000000000000	-5.42083300000000	0.00000000000000	0.00000000000000	-19.40819200000000	0.00000000000000	
8.99496300000000	-17.07193900000000	100.80533900000000	-10.29435600000000	0.36211000000000	0.00000000000000	0.11217600000000	-46.04199900000000	761.10393399999998	-53.04364000000000	0.13307600000000	0.00000000000000	-0.07509800000000	0.00000000000000	-5.72353200000000	0.00000000000000	0.00000000000000	-19.32422700000000	0.00000000000000	
8.99663900000000	-16.38410400000000	107.63269500000000	-10.40579200000000	0.36584400000000	0.00000000000000	0.11229900000000	-46.69240300000000	757.19168800000000	-52.62151000000000	0.13241700000000	0.00000000000000	-0.07496700000000	0.00000000000000	-5.99610500000000	0.00000000000000	0.00000000000000	-19.24185800000000	0.00000000000000	
8.99829900000000	-15.51814000000000	114.41825500000000	-10.44386800000000	0.36936300000000	0.00000000000000	0.11242000000000	-47.35870600000000	753.14509099999998	-52.18203700000000	0.13176300000000	0.00000000000000	-0.07483400000000	0.00000000000000	-6.24031400000000	0.00000000000000	0.00000000000000	-19.16098100000000	0.00000000000000	
8.99996400000000	-14.50669200000000	121.20974000000000	-10.41840500000000	0.37268800000000	0.00000000000000	0.11254100000000	-48.04001100000000	748.96320100000003	-51.72511200000000	0.13111500000000	0.00000000000000	-0.07469800000000	0.00000000000000	-6.45842800000000	0.00000000000000	0.00000000000000	-19.08147600000000	0.00000000000000	
9.00163100000000	-13.38021400000000	128.05498399999999	-10.33880200000000	0.37583600000000	0.00000000000000	0.11266100000000	-48.73531000000000	744.64508999999998	-51.25064600000000	0.13047100000000	0.00000000000000	-0.07455800000000	0.00000000000000	-6.65287000000000	0.00000000000000	0.00000000000000	-19.00320600000000	0.00000000000000	
9.00332300000000	-12.16540600000000	134.99820900000000	-10.21338700000000	0.37882100000000	0.00000000000000	0.11278100000000	-49.44348500000000	740.18984499999999	-50.75856900000000	0.12983300000000	0.00000000000000	-0.07441600000000	0.00000000000000	-6.82591800000000	0.00000000000000	0.00000000000000	-18.92601700000000	0.00000000000000	
9.00496400000000	-10.88421600000000	142.07718600000001	-10.04898200000000	0.38165700000000	0.00000000000000	0.11290100000000	-50.16331000000000	735.59657500000003	-50.24882900000000	0.12920000000000	0.00000000000000	-0.07427000000000	0.00000000000000	-6.97946500000000	0.00000000000000	0.00000000000000	-18.84973900000000	0.00000000000000	
9.00663200000000	-9.55337100000000	149.32135900000000	-9.85064500000000	0.38435400000000	0.00000000000000	0.11302000000000	-50.89344900000000	730.86441900000000	-49.72140000000000	0.12857200000000	0.00000000000000	-0.07412100000000	0.00000000000000	-7.11486500000000	0.00000000000000	0.00000000000000	-18.77418500000000	0.00000000000000	
9.00830100000000	-8.18437200000000	156.75089600000001	-9.62160000000000	0.38692200000000	0.00000000000000	0.11314000000000	-51.63246300000000	725.99254499999995	-49.17628000000000	0.12794900000000	0.00000000000000	-0.07396800000000	0.00000000000000	-7.23284300000000	0.00000000000000	0.00000000000000	-18.69915600000000	0.00000000000000	
9.00997100000000	-6.78388300000000	164.37655699999999	-9.36332500000000	0.38937000000000	0.00000000000000	0.11326000000000	-52.37881300000000	720.98016099999995	-48.61349500000000	0.12733200000000	0.00000000000000	-0.07381300000000	0.00000000000000	-7.33347800000000	0.00000000000000	0.00000000000000	-18.62443800000000	0.00000000000000	
9.01163500000000	-5.35440400000000	172.20026600000000	-9.07574800000000	0.39170500000000	0.00000000000000	0.11338000000000	-53.13085900000000	715.82652399999995	-48.03309900000000	0.12672000000000	0.00000000000000	-0.07365500000000	0.00000000000000	-7.41623800000000	0.00000000000000	0.00000000000000	-18.54980200000000	0.00000000000000	
9.01329900000000	-3.89512700000000	180.21618799999999	-8.75753100000000	0.39393300000000	0.00000000000000	0.11350000000000	-53.88686600000000	710.53094099999998	-47.43517800000000	0.12611400000000	0.00000000000000	-0.07349300000000	0.00000000000000	-7.48007000000000	0.00000000000000	0.00000000000000	-18.47501000000000	0.00000000000000	
